<svg width="85" height="56" viewBox="0 0 85 56" fill="none" xmlns="http://www.w3.org/2000/svg">
<g clip-path="url(#clip0_1135_4038)">
<path d="M8.32367 53.5408C6.98809 52.3608 6.22352 51.1808 5.54605 50.1111C5.19763 49.5707 4.07497 47.7401 3.06844 44.8067C2.22644 42.3805 1.88771 40.2521 1.56833 38.3774C1.16185 35.9843 0.261782 30.5475 0.958608 24.0079C1.51026 18.7476 2.45872 9.77082 8.67209 4.14656C9.75604 3.16507 12.2627 0.915365 15.9694 0.220603C19.0374 -0.352851 21.8731 0.319854 23.5958 0.727889C24.8636 1.02564 25.8992 1.37854 26.6347 1.66527C24.7378 1.61013 21.9892 1.80863 18.9503 3.08787C17.6147 3.6503 16.4727 4.31198 15.5339 4.96263C7.58814 11.0611 7.29779 24.041 7.17197 29.555C7.15262 30.4262 7.07519 35.4439 8.44949 41.2667C8.44949 41.2667 9.44634 45.4904 11.14 48.8208C11.711 49.9347 12.1272 50.5963 12.5046 51.1147C13.0466 51.8646 14.237 53.4636 16.2888 54.6436C17.7115 55.4597 19.0664 55.7795 20.0826 55.9118C19.7729 55.9559 19.3084 56 18.7374 56C17.9728 56 17.634 55.9118 16.9663 55.8567C15.921 55.7685 15.7468 55.9008 14.5467 55.9008C13.8983 55.9008 12.9789 55.8898 12.1175 55.7133C10.3658 55.3384 9.17535 54.2907 8.32367 53.5408Z" fill="url(#paint0_radial_1135_4038)"/>
<path d="M72.2191 39.6786C75.1419 35.9953 78.0744 31.4076 79.4486 28.8822C79.5745 28.6506 79.8164 28.5293 80.0584 28.5845C81.3843 28.8712 82.7199 29.169 84.0458 29.4557C84.4329 29.5439 84.6361 30.0181 84.4522 30.4151C82.7876 34.0654 81.0068 36.8334 79.6132 38.7523C76.2258 43.4061 73.7773 44.8948 72.7223 45.4573C70.7383 46.4939 69.1705 46.6152 68.8221 46.6373C67.9897 46.6924 67.4478 46.5931 66.0735 46.3946C64.9314 46.2292 63.2378 45.9866 61.1279 45.7219C62.1828 45.6558 63.6926 45.4573 65.4057 44.7956C69.2382 43.2848 71.59 40.4726 72.2191 39.6786Z" fill="url(#paint1_radial_1135_4038)"/>
<path d="M59.4437 39.9984C57.2758 37.2635 53.4723 31.1871 52.9303 30.3159C51.1592 27.4927 49.9785 25.6069 48.3429 23.1587C46.8718 20.9531 45.6233 19.1887 44.8007 18.0418C40.7068 12.219 36.8646 8.282 33.8837 5.69043C32.6352 4.59866 31.5513 3.76054 30.0996 2.99961C28.7156 2.27176 27.4865 1.88578 26.6251 1.66522C25.9476 1.64317 25.1927 1.65419 24.3798 1.73139C23.712 1.78653 23.1023 1.88578 22.5312 1.99606C23.1313 2.16148 24.0217 2.45924 25.0282 2.98858C25.6379 3.30839 26.7316 3.97007 29.635 6.76014C30.1963 7.30051 31.9965 9.07601 34.2999 11.7338C35.0064 12.5498 35.7322 13.4321 36.5549 14.4797C37.0969 15.1745 39.0615 17.6889 41.6649 21.5928C45.2458 26.9523 46.0491 28.9594 50.2494 35.2454C50.2591 35.2674 50.2978 35.3115 50.3559 35.3998C50.8205 36.0945 52.127 38.0575 53.569 39.822C55.3692 42.0276 56.3467 43.2296 58.0307 44.2993C59.2404 45.0713 60.3437 45.4683 61.1083 45.6999C61.3696 45.6889 61.6406 45.6558 61.9116 45.6337C63.0343 45.5014 64.0505 45.2477 64.9409 44.95C64.0311 44.5089 63.3343 44.0236 62.8697 43.6597C62.1632 43.1083 61.689 42.59 60.9631 41.807C60.818 41.6085 60.1211 40.8476 59.4437 39.9984Z" fill="url(#paint2_radial_1135_4038)"/>
<path d="M70.9699 6.40725C69.644 6.62781 67.7471 7.06892 65.6082 8.06144C63.75 8.92162 62.4822 9.83694 60.6336 11.1934C59.0658 12.3403 57.2366 13.807 55.1848 15.7369C54.0138 16.8397 52.233 18.5931 49.2328 22.1221C49.2328 22.1221 41.5193 31.0878 35.635 40.5498C33.8058 43.4943 32.4122 45.2919 29.6249 48.8759C29.6249 48.8759 28.0086 50.9492 25.4052 53.243C24.1858 54.3238 22.7727 55.4155 20.8178 55.8015C20.5081 55.8566 20.2564 55.8897 20.0822 55.9008C19.4531 55.8015 18.6982 55.6361 17.8853 55.3383C17.1594 55.0737 16.5303 54.7649 15.998 54.4671C16.3077 54.3238 16.811 54.0811 17.4111 53.7282C20.2661 52.041 22.0178 49.8354 22.7534 48.898C26.5956 43.9575 32.9445 34.5175 34.3575 32.4332C36.1963 29.7204 38.432 26.3679 41.7903 22.3206C41.7903 22.3206 47.4133 15.384 54.0331 9.82592C54.488 9.43994 56.6075 7.68649 59.5884 6.0323C60.924 5.29342 62.0176 4.74202 63.6242 4.32296C64.9501 3.97007 66.0921 3.87082 66.9051 3.84876C67.4374 4.09137 68.0084 4.38913 68.5987 4.74202C69.5182 5.28239 70.3021 5.85585 70.9699 6.40725Z" fill="url(#paint3_radial_1135_4038)"/>
<path d="M77.7061 14.2371C78.3352 14.7995 78.8771 15.1304 79.1675 15.3068C80.4256 16.0788 81.7515 16.5199 82.6226 16.7625C82.7871 16.8066 82.9226 16.5971 82.8355 16.4317C82.1096 15.0532 81.4515 13.9063 80.9289 13.0351C79.4578 10.5758 78.7513 9.74872 78.3158 9.27452C77.9674 8.89957 77.3964 8.27097 76.535 7.63135C75.6446 6.95865 74.8704 6.60575 73.3703 5.93304C72.6057 5.59118 71.7153 5.19417 70.6023 4.80819C70.0216 4.60969 69.5571 4.47735 69.3248 4.41119C68.3667 4.13549 67.5344 3.95904 66.9053 3.84876C68.7635 4.70894 70.1475 5.72351 71.0766 6.5065C72.1412 7.39976 73.1961 8.33714 74.251 9.84797C74.7639 10.5868 75.393 11.6235 76.477 12.9468C76.7479 13.2666 77.1351 13.7298 77.7061 14.2371Z" fill="url(#paint4_radial_1135_4038)"/>
</g>
<defs>
<radialGradient id="paint0_radial_1135_4038" cx="0" cy="0" r="1" gradientUnits="userSpaceOnUse" gradientTransform="translate(14.1751 18.8029) scale(47.4766 54.0983)">
<stop stop-color="white"/>
<stop offset="0.3472" stop-color="#D3D3D3"/>
</radialGradient>
<radialGradient id="paint1_radial_1135_4038" cx="0" cy="0" r="1" gradientUnits="userSpaceOnUse" gradientTransform="translate(71.8362 61.7783) scale(22.9258 26.1233)">
<stop offset="0.3718" stop-color="#D3D3D3"/>
<stop offset="0.8885" stop-color="#EAEAEA"/>
</radialGradient>
<radialGradient id="paint2_radial_1135_4038" cx="0" cy="0" r="1" gradientUnits="userSpaceOnUse" gradientTransform="translate(47.2155 45.0937) scale(45.4294 51.7655)">
<stop stop-color="white"/>
<stop offset="0.1146" stop-color="#EFEFEF"/>
<stop offset="0.3449" stop-color="#D3D3D3"/>
<stop offset="0.6023" stop-color="#D3D3D3"/>
</radialGradient>
<radialGradient id="paint3_radial_1135_4038" cx="0" cy="0" r="1" gradientUnits="userSpaceOnUse" gradientTransform="translate(33.1813 28.1835) scale(24.2213 27.5995)">
<stop stop-color="#D3D3D3"/>
<stop offset="0.1423" stop-color="#DADADA"/>
<stop offset="0.5124" stop-color="#E6E6E6"/>
<stop offset="0.8779" stop-color="#EAEAEA"/>
</radialGradient>
<radialGradient id="paint4_radial_1135_4038" cx="0" cy="0" r="1" gradientUnits="userSpaceOnUse" gradientTransform="translate(76.7891 -11.5585) scale(25.5116 29.0698)">
<stop offset="0.3718" stop-color="#D3D3D3"/>
<stop offset="0.8885" stop-color="#EAEAEA"/>
</radialGradient>
<clipPath id="clip0_1135_4038">
<rect width="83.8224" height="56" fill="white" transform="translate(0.697266)"/>
</clipPath>
</defs>
</svg>
