<svg width="1497" height="1080" viewBox="0 0 1497 1080" fill="none" xmlns="http://www.w3.org/2000/svg">
<g opacity="0.1" clip-path="url(#clip0_1056_924)">
<path d="M209.26 1279.28C172.613 1250.87 151.633 1222.46 133.044 1196.7C123.484 1183.68 92.6796 1139.6 65.0615 1068.96C41.9579 1010.54 32.6634 959.287 23.9 914.142C12.7465 856.516 -11.9504 725.596 7.1698 568.12C22.3066 441.449 48.3313 225.284 218.82 89.8496C248.562 66.2149 317.342 12.041 419.051 -4.68917C503.233 -18.4982 581.041 -2.29915 628.311 7.52651C663.099 14.6966 691.513 23.1944 711.696 30.099C659.646 28.7712 584.228 33.5512 500.843 64.356C464.196 77.8994 432.86 93.8329 407.101 109.501C189.077 256.355 181.11 568.917 177.658 701.696C177.127 722.675 175.003 843.504 212.712 983.719C212.712 983.719 240.064 1085.43 286.537 1165.63C302.205 1192.45 313.624 1208.38 323.981 1220.86C338.852 1238.92 371.516 1277.43 427.814 1305.84C466.851 1325.49 504.029 1333.19 531.913 1336.38C523.415 1337.44 510.668 1338.5 495 1338.5C474.021 1338.5 464.727 1336.38 446.403 1335.05C417.723 1332.93 412.943 1336.11 380.014 1336.11C362.221 1336.11 336.993 1335.85 313.358 1331.6C265.292 1322.57 232.629 1297.34 209.26 1279.28Z" fill="url(#paint0_radial_1056_924)"/>
<path d="M1611.94 953.18C1552.45 887.321 1448.09 740.998 1433.22 720.019C1384.62 652.036 1352.22 606.626 1307.34 547.672C1266.98 494.56 1232.72 452.071 1210.15 424.453C1097.82 284.238 992.391 189.434 910.599 127.028C876.342 100.738 846.6 80.5551 806.766 62.2316C768.791 44.7048 735.065 35.4102 711.431 30.0991C692.842 29.5679 672.128 29.8335 649.821 31.6924C631.498 33.0202 614.768 35.4102 599.1 38.0658C615.564 42.0492 639.996 49.2193 667.614 61.9661C684.344 69.6672 714.352 85.6007 794.019 152.787C809.422 165.799 858.816 208.554 922.018 272.554C941.404 292.205 961.321 313.45 983.894 338.678C998.765 355.408 1052.67 415.955 1124.11 509.963C1222.36 639.024 1244.41 687.356 1359.66 838.724C1359.92 839.255 1360.99 840.317 1362.58 842.442C1375.33 859.172 1411.18 906.441 1450.74 948.931C1500.14 1002.04 1526.96 1030.99 1573.17 1056.75C1606.36 1075.34 1636.64 1084.9 1657.61 1090.47C1664.78 1090.21 1672.22 1089.41 1679.66 1088.88C1710.46 1085.69 1738.34 1079.59 1762.78 1072.42C1737.81 1061.79 1718.69 1050.11 1705.95 1041.34C1686.56 1028.07 1673.55 1015.59 1653.63 996.731C1649.65 991.951 1630.53 973.628 1611.94 953.18Z" fill="url(#paint1_radial_1056_924)"/>
<path d="M1928.22 144.289C1891.84 149.6 1839.79 160.223 1781.1 184.123C1730.11 204.836 1695.32 226.878 1644.6 259.541C1601.58 287.16 1551.39 322.479 1495.09 368.951C1462.96 395.507 1414.1 437.731 1331.77 522.71C1331.77 522.71 1120.12 738.609 958.665 966.458C908.475 1037.36 870.234 1080.65 793.754 1166.95C793.754 1166.95 749.405 1216.88 677.97 1272.11C644.51 1298.14 605.738 1324.43 552.096 1333.72C543.598 1335.05 536.693 1335.85 531.913 1336.11C514.652 1333.72 493.938 1329.74 471.632 1322.57C451.715 1316.2 434.453 1308.76 419.848 1301.59C428.346 1298.14 442.155 1292.3 458.619 1283.8C536.959 1243.17 585.025 1190.06 605.207 1167.49C710.634 1048.52 884.84 821.197 923.612 771.007C974.068 705.679 1035.41 624.95 1127.56 527.49C1127.56 527.49 1281.85 360.454 1463.49 226.612C1475.97 217.318 1534.13 175.094 1615.92 135.26C1652.57 117.468 1682.58 104.19 1726.66 94.0987C1763.04 85.6008 1794.38 83.2108 1816.68 82.6797C1831.29 88.522 1846.96 95.692 1863.16 104.19C1888.38 117.202 1909.9 131.011 1928.22 144.289Z" fill="url(#paint2_radial_1056_924)"/>
</g>
<defs>
<radialGradient id="paint0_radial_1056_924" cx="0" cy="0" r="1" gradientUnits="userSpaceOnUse" gradientTransform="translate(369.816 442.781) scale(1302.71 1302.71)">
<stop stop-color="white"/>
<stop offset="0.3472" stop-color="#D3D3D3"/>
</radialGradient>
<radialGradient id="paint1_radial_1056_924" cx="0" cy="0" r="1" gradientUnits="userSpaceOnUse" gradientTransform="translate(1276.41 1075.88) scale(1246.54 1246.54)">
<stop stop-color="white"/>
<stop offset="0.1146" stop-color="#EFEFEF"/>
<stop offset="0.3449" stop-color="#D3D3D3"/>
<stop offset="0.6023" stop-color="#D3D3D3"/>
</radialGradient>
<radialGradient id="paint2_radial_1056_924" cx="0" cy="0" r="1" gradientUnits="userSpaceOnUse" gradientTransform="translate(891.339 668.67) scale(664.608 664.608)">
<stop stop-color="#D3D3D3"/>
<stop offset="0.1423" stop-color="#DADADA"/>
<stop offset="0.5124" stop-color="#E6E6E6"/>
<stop offset="0.8779" stop-color="#EAEAEA"/>
</radialGradient>
<clipPath id="clip0_1056_924">
<rect width="2300" height="1348.5" fill="white" transform="translate(0 -10)"/>
</clipPath>
</defs>
</svg>
